<?xml version="1.0" encoding="UTF-8"?>
<!-- CrudCloud logo (SVG) - simplified, gradient cloud + text -->
<svg xmlns="http://www.w3.org/2000/svg" viewBox="0 0 360 120" role="img" aria-labelledby="title">
  <title id="title">CrudCloud logo</title>
  <defs>
    <linearGradient id="g1" x1="0%" x2="100%" y1="0%" y2="0%">
      <stop offset="0%" stop-color="#14b8a6"/>
      <stop offset="100%" stop-color="#115e59"/>
    </linearGradient>
  </defs>
  <!-- Cloud icon (stylized) -->
  <g transform="translate(10,12)">
    <path d="M64 33c0-12.1-9.9-22-22-22-5.1 0-9.8 1.8-13.4 4.8-3.7-6.3-10.6-10.8-18.6-10.8-11.6 0-21 9.4-21 21 0 .8.1 1.6.2 2.3C1.3 31.1 0 35 0 39.3 0 48 7.5 55 16.7 55h47.3c8.7 0 15.8-7 15.8-15.7 0-7.8-5.4-14.4-13.8-15z" fill="url(#g1)"/>
    <!-- Speed lines -->
    <g transform="translate(-10,10) scale(0.9)">
      <rect x="-6" y="26" width="16" height="6" rx="3" ry="3" fill="#11b58f" opacity="0.9"/>
      <rect x="6" y="26" width="22" height="6" rx="3" ry="3" fill="#11b58f" opacity="0.7"/>
    </g>
  </g>

  <!-- Text -->
  <g transform="translate(120,80)">
    <text x="0" y="0" font-family="Inter, Arial, Helvetica, sans-serif" font-weight="700" font-size="36" fill="url(#g1)">Crud</text>
    <text x="88" y="0" font-family="Inter, Arial, Helvetica, sans-serif" font-weight="700" font-size="36" fill="#124f4a">Cloud</text>
  </g>
</svg>
